<?xml version="1.0" encoding="UTF-8"?>
<svg id="Calque_1" data-name="Calque 1" xmlns="http://www.w3.org/2000/svg" viewBox="0 0 397.48 138.76">
  <defs>
    <style>
      .cls-1 {
        fill: #164639;
        stroke-width: 0px;
      }
    </style>
  </defs>
  <path class="cls-1" d="M68.21,19.29c6.57,0,11.28,6.36,9.34,12.64-1.22,3.94-2.43,7.87-3.62,11.78-1.24,4.04-2.48,8.1-3.74,12.17-.55,1.78-1.1,3.57-1.65,5.35-1.26,4.1-5.05,6.9-9.34,6.9h-23.15c-4.3,0-8.08-2.8-9.33-6.9-1.29-4.21-2.58-8.42-3.87-12.63-1-3.26-2.01-6.51-3.03-9.77-1.02-3.26-2.04-6.51-3.03-9.77,0-.03-.02-.07-.03-.1-1.47-4.81,2.12-9.67,7.15-9.67h10.51c4.56,0,8.89,3.67,9.63,8.17.15.93.31,1.85.47,2.79.31,1.84.62,3.68.91,5.51.29,1.84.59,3.68.9,5.52.31,1.84.62,3.66.91,5.47.29,1.81.59,3.64.91,5.48.05.26.09.46.12.59.03.13.06.2.12.2s.09-.07.12-.2c.02-.13.06-.33.12-.59.31-1.84.62-3.66.91-5.48.29-1.81.59-3.64.9-5.47.31-1.84.62-3.68.91-5.52.29-1.84.59-3.67.91-5.51.16-.93.32-1.86.47-2.79.74-4.5,5.07-8.17,9.63-8.17h5.89Z"/>
  <path class="cls-1" d="M110.21,26.97c0,4.62-3.23,8.6-7.74,9.56l-10.84,2.3c-4.48.93-8.67-2.48-8.67-7.06v-1.85s0-3.43,0-3.43c0-3.98,3.23-7.21,7.21-7.21h12.37c4.24,0,7.68,3.44,7.68,7.68h0ZM92.05,40.64h9.1c5,0,9.06,4.06,9.06,9.06v11.23c0,3.98-3.23,7.21-7.21,7.21h-12.84c-3.98,0-7.21-3.23-7.21-7.21h0v-11.19c0-5.03,4.07-9.1,9.1-9.1h0Z"/>
  <path class="cls-1" d="M130.85,9.05c5.4,0,9.77,4.37,9.77,9.77v39.6c0,5.37-4.35,9.72-9.72,9.72h-7.82c-5.37,0-9.72-4.35-9.72-9.72V18.77c0-5.37,4.35-9.72,9.72-9.72h7.77Z"/>
  <path class="cls-1" d="M153.54,68.14c-5.39,0-9.77-4.37-9.77-9.77V18.82c0-5.39,4.37-9.77,9.77-9.77h7.72c5.39,0,9.77,4.37,9.77,9.77v39.55c0,5.39-4.37,9.77-9.77,9.77h-7.72Z"/>
  <path class="cls-1" d="M238.32,58.37c0,5.4-4.37,9.77-9.77,9.77h-8.05c-5.41,0-9.79-4.39-9.77-9.8l.02-6.75c0-.94-.31-1.71-.95-2.29-.63-.58-1.39-.98-2.28-1.22-.89-.24-1.79-.36-2.68-.36-2,0-3.51.39-4.53,1.18-1.02.79-1.54,1.68-1.54,2.68s.52,1.9,1.57,2.72c1.05.82,2.55,1.22,4.49,1.22.94,0,2.02-.18,3.23-.55,1.21-.37,2.13-1.31,2.76-2.84-1.1,2.58-2.22,5.15-3.35,7.72-.57,1.3-1.14,2.6-1.7,3.9-1.22,2.82-3.69,4.94-6.68,5.64-.3.07-.61.13-.91.19-2.08.39-4.14.59-6.18.59-2.47,0-4.84-.33-7.13-.99-2.28-.66-4.33-1.61-6.14-2.88-1.81-1.26-3.25-2.83-4.29-4.73-1.05-1.89-1.58-4.1-1.58-6.62,0-1.52.26-3.02.79-4.49.52-1.47,1.31-2.86,2.36-4.18,1.05-1.31,2.38-2.47,3.98-3.47,1.6-1,3.51-1.77,5.71-2.32,2.21-.55,4.73-.83,7.56-.83,1.84,0,3.63.14,5.36.43,1.73.29,3.38.72,4.92,1.3,1.55.58,2.94,1.29,4.18,2.13,1.23.84,2.25,1.79,3.03,2.84v-.71c0-1.63-.41-3.03-1.22-4.21-.82-1.18-1.92-2.15-3.31-2.91-1.39-.76-3-1.33-4.81-1.7-1.81-.37-3.72-.55-5.71-.55-3.1,0-6.23.39-9.37,1.18l-.09.02c-4.15,1.04-8.18-2.09-8.18-6.38v-4.65c0-2.81,1.84-5.23,4.49-6.14,2.54-.87,5.2-1.58,8-2.12,4.49-.87,8.99-1.3,13.51-1.3s8.67.42,12.77,1.26c4.1.84,7.76,2.13,10.99,3.86,3.23,1.73,5.79,3.89,7.68,6.46,1.89,2.57,2.84,5.59,2.84,9.06v20.8Z"/>
  <path class="cls-1" d="M310.17,38.43v19.23c0,2.84-.66,5.4-1.97,7.68-1.32,2.28-3.13,4.31-5.44,6.07-2.31,1.76-4.99,3.22-8.04,4.37-3.05,1.16-6.33,2.04-9.85,2.64s-7.09.91-10.71.91c-4.62,0-9.19-.5-13.71-1.5-1.88-.42-3.68-.92-5.39-1.5-4.02-1.38-6.74-5.12-6.74-9.36v-6.15c1.52,1,3.37,1.9,5.55,2.72,2.18.82,4.5,1.46,6.97,1.93,2.47.47,4.91.71,7.33.71,2,0,3.87-.2,5.63-.59,1.76-.39,3.32-1.01,4.69-1.85,1.37-.84,2.44-1.94,3.23-3.31.79-1.37,1.18-3.05,1.18-5.04v-14.58c0-.95-.19-1.76-.55-2.44-.37-.68-.91-1.25-1.62-1.7-.71-.44-1.54-.79-2.48-1.02-.94-.24-2-.35-3.15-.35-1.57,0-2.98.2-4.21.59-1.24.39-2.19.98-2.88,1.77-.68.79-1.02,1.76-1.02,2.91s.35,2.23,1.06,3.07c.71.84,1.67,1.49,2.88,1.93,1.21.45,2.6.67,4.18.67,4.2,0,6.8-1.52,7.8-4.57l-3.49,13.66c-.93,3.64-3.82,6.67-7.54,7.18-.08.01-.16.02-.24.03-2.15.26-4.33.39-6.54.39-3.21,0-6.28-.51-9.22-1.54-2.94-1.02-5.55-2.49-7.84-4.41-2.28-1.92-4.1-4.25-5.44-7.01s-2.01-5.9-2.01-9.42c0-2.36.31-4.54.94-6.54.63-1.99,1.52-3.83,2.68-5.51,1.15-1.68,2.53-3.16,4.14-4.45,1.6-1.29,3.36-2.38,5.28-3.27,1.92-.89,3.96-1.56,6.15-2.01,2.18-.44,4.4-.67,6.66-.67,1.05,0,2.18.07,3.39.2,1.21.13,2.43.34,3.66.63,1.23.29,2.43.69,3.58,1.18,1.16.5,2.22,1.1,3.19,1.81.97.71,1.8,1.56,2.48,2.56.05.11.09.16.12.16.02,0,.04-.03.04-.08v-5.28h17.42c5.43,0,9.84,4.4,9.84,9.84v9.31Z"/>
  <path class="cls-1" d="M348.07,50.33c2.78,0,4.94-.5,6.46-1.5,1.52-1,2.31-2.36,2.36-4.1l15.7,5.13c5.05,1.65,6.68,8.24,2.71,11.77-.03.03-.06.05-.09.08-3.07,2.71-6.95,4.85-11.62,6.42-4.67,1.57-9.9,2.36-15.68,2.36-4.94,0-9.55-.55-13.83-1.65-4.28-1.1-8.04-2.77-11.26-5-3.23-2.23-5.77-5.03-7.6-8.39-1.84-3.36-2.76-7.27-2.76-11.74s.92-8.38,2.76-11.74c1.84-3.36,4.37-6.16,7.6-8.39,3.23-2.23,7-3.9,11.31-5,4.31-1.1,8.9-1.65,13.79-1.65s9.57.55,13.75,1.65c4.18,1.1,7.77,2.8,10.8,5.08,3.02,2.29,5.36,5.17,7.01,8.67.53,1.12.98,2.31,1.34,3.56,1.27,4.43-2.24,8.84-6.85,8.84h-35.02v.08c0,.79.21,1.52.63,2.2.42.68,1.01,1.27,1.77,1.77.76.5,1.71.88,2.84,1.14,1.13.26,2.43.39,3.9.39ZM347.91,36.86c-2.57,0-4.7.46-6.38,1.38-1.68.92-2.52,2.22-2.52,3.9v.16h17.65c.05,0,.08-.01.08-.04v-.12c0-.84-.22-1.59-.67-2.25-.45-.66-1.07-1.21-1.85-1.65-.79-.45-1.72-.79-2.8-1.02-1.08-.24-2.24-.36-3.51-.36Z"/>
  <path class="cls-1" d="M68.21,78.5c6.57,0,11.28,6.36,9.34,12.64-1.22,3.94-2.43,7.87-3.62,11.78-1.24,4.04-2.48,8.1-3.74,12.17-.55,1.78-1.1,3.57-1.65,5.35-1.26,4.1-5.05,6.9-9.34,6.9h-23.15c-4.3,0-8.08-2.8-9.33-6.9-1.29-4.21-2.58-8.42-3.87-12.63-1-3.26-2.01-6.51-3.03-9.77-1.02-3.26-2.04-6.51-3.03-9.77l-.03-.1c-1.47-4.81,2.12-9.67,7.15-9.67h10.51c4.56,0,8.89,3.67,9.63,8.17.15.93.31,1.85.47,2.79.31,1.84.62,3.68.91,5.51.29,1.84.59,3.68.9,5.52.31,1.84.62,3.66.91,5.47.29,1.81.59,3.64.91,5.48.05.26.09.46.12.59.03.13.06.2.12.2s.09-.07.12-.2c.02-.13.06-.33.12-.59.31-1.84.62-3.66.91-5.48.29-1.81.59-3.64.9-5.47.31-1.84.62-3.68.91-5.52.29-1.84.59-3.67.91-5.51.16-.93.32-1.86.47-2.79.74-4.5,5.07-8.17,9.63-8.17h5.89Z"/>
  <path class="cls-1" d="M117.78,109.55c2.78,0,4.94-.5,6.46-1.5,1.52-1,2.31-2.36,2.36-4.1l15.7,5.13c5.05,1.65,6.68,8.24,2.71,11.77-.03.03-.06.05-.09.08-3.07,2.71-6.95,4.85-11.62,6.42-4.67,1.57-9.9,2.36-15.68,2.36-4.94,0-9.55-.55-13.83-1.65-4.28-1.1-8.04-2.77-11.26-5-3.23-2.23-5.77-5.03-7.6-8.39-1.84-3.36-2.76-7.27-2.76-11.74s.92-8.38,2.76-11.74c1.84-3.36,4.37-6.16,7.6-8.39,3.23-2.23,7-3.9,11.31-5,4.31-1.1,8.9-1.65,13.79-1.65s9.57.55,13.75,1.65c4.18,1.1,7.77,2.8,10.8,5.08,3.02,2.29,5.36,5.17,7.01,8.67.53,1.12.98,2.31,1.34,3.56,1.27,4.43-2.24,8.84-6.85,8.84h-35.02v.08c0,.79.21,1.52.63,2.2.42.68,1.01,1.27,1.77,1.77.76.5,1.71.88,2.84,1.14,1.13.26,2.43.39,3.9.39ZM117.62,96.07c-2.57,0-4.7.46-6.38,1.38s-2.52,2.22-2.52,3.9v.16h17.65c.05,0,.08-.01.08-.04v-.12c0-.84-.22-1.59-.67-2.25-.45-.66-1.07-1.21-1.85-1.65-.79-.45-1.72-.79-2.8-1.02-1.08-.24-2.24-.36-3.51-.36Z"/>
  <path class="cls-1" d="M237.77,87.8v11.74c0,1,.22,1.87.67,2.6.44.74,1.08,1.35,1.89,1.85.81.5,1.77.88,2.88,1.14,1.1.26,2.33.39,3.7.39,1.52,0,3.07-.24,4.65-.71,1.57-.47,3.01-1.13,4.29-1.97,1.29-.84,2.22-1.81,2.8-2.91v18.06c0,4.36-2.87,8.15-7.04,9.41-.55.17-1.12.32-1.71.46-3.57.87-7.14,1.3-10.72,1.3-5.41,0-10.25-.88-14.53-2.64-4.28-1.76-7.66-4.31-10.12-7.64-2.47-3.33-3.7-7.36-3.7-12.09v-20.74c0-4.52,3.1-8.45,7.49-9.5l7.4-1.78c6.14-1.47,12.05,3.18,12.05,9.5v3.52ZM237.85,99.94c.63-2.42,1.25-4.81,1.85-7.17.6-2.36,1.21-4.74,1.81-7.13l.47-1.86c.78-3.1,3.57-5.27,6.77-5.27h2.92c3.85,0,6.98,3.12,6.98,6.98v7.47c0,3.85-3.12,6.98-6.98,6.98h-13.82Z"/>
  <path class="cls-1" d="M171.55,78.5c5.24,0,9.5,4.25,9.5,9.5h0v29.58c0,5.4-4.37,9.77-9.77,9.77h-7.72c-5.4,0-9.77-4.37-9.77-9.77v-30.25h0c0-4.88,3.95-8.83,8.83-8.83h8.94ZM180.96,108.6l4.25-21.19c.47-2.26,1.41-4.14,2.8-5.63,1.39-1.5,3.03-2.64,4.92-3.43,1.89-.79,3.83-1.27,5.83-1.45,2-.19,3.83-.1,5.52.23,1.68.34,3.02.91,4.02,1.7l-4.59,22.49c-.64,3.14-3.76,4.93-6.88,4.23-.02,0-.04,0-.07-.01-2.18-.47-4.37-.64-6.58-.51-2.21.13-4.15.51-5.83,1.14-1.68.63-2.81,1.44-3.39,2.44Z"/>
  <path class="cls-1" d="M345.85,105.87c1.59-.12,3.16-.24,4.72-.36,1.56-.11,3.13-.23,4.72-.36,1.58-.12,3.17-.25,4.76-.36,1.58-.11,3.17-.23,4.75-.36.8-.06,1.6-.13,2.4-.19,3.88-.3,7.04-2.01,7.04-3.82v-2.34c0-2.61-5.49-4.48-10.9-3.71-3.4.48-6.78.96-10.16,1.44-3.49.49-6.99.99-10.5,1.49-.72.1-1.43.2-2.15.31.78-2,1.56-4,2.34-6.01.67-1.72,1.35-3.45,2.04-5.17.69-1.72,1.37-3.44,2.04-5.17,0-.02.01-.03.02-.05.99-2.54-1.43-5.12-4.81-5.12h-7.08c-3.07,0-5.98,1.94-6.48,4.32-.1.49-.21.98-.32,1.47-.21.97-.41,1.95-.61,2.92-.19.97-.4,1.95-.61,2.92-.21.97-.42,1.94-.61,2.9-.19.96-.4,1.92-.61,2.9-.04.14-.06.24-.08.31-.02.07-.04.1-.08.1s-.06-.04-.08-.1c-.02-.07-.04-.17-.08-.31-.21-.97-.41-1.94-.61-2.9-.19-.96-.4-1.92-.61-2.9-.21-.97-.42-1.94-.61-2.92-.19-.97-.4-1.94-.61-2.92-.11-.49-.21-.98-.32-1.47-.5-2.38-3.41-4.32-6.48-4.32h-3.96c-4.42,0-7.59,3.37-6.29,6.69.82,2.08,1.63,4.16,2.44,6.23.73,1.87,1.46,3.75,2.2,5.62-3.16-.51-6.33-1.02-9.49-1.53-2.87-.46-5.74-.93-8.6-1.41-2.87-.47-5.73-.94-8.6-1.41-.03,0-.06,0-.09-.01-4.23-.68-8.52.98-8.52,3.31v4.87c0,2.11,3.23,4.12,7.19,4.46.81.07,1.63.14,2.45.22,1.62.15,3.24.29,4.85.42,1.62.13,3.24.27,4.86.42,1.62.15,3.23.29,4.82.42,1.6.13,3.2.27,4.82.42.23.02.4.04.52.05.11.01.17.03.17.05s-.06.04-.17.06c-.12.01-.29.03-.52.05-1.62.15-3.23.29-4.82.42-1.59.13-3.2.27-4.82.42-1.62.15-3.24.29-4.86.42-1.62.13-3.24.27-4.85.42-.82.07-1.64.15-2.45.22-3.96.35-7.19,2.35-7.19,4.46v2.73c0,3.04,5.6,5.22,11.13,4.32,3.47-.56,6.93-1.12,10.37-1.68,3.56-.57,7.13-1.15,10.72-1.73.62-.1,1.23-.2,1.85-.3-.63,1.12-1.26,2.23-1.89,3.35-.64,1.13-1.29,2.27-1.95,3.4-.66,1.13-1.31,2.27-1.95,3.4l-.02.03c-.95,1.67,1.36,3.37,4.59,3.37h6.75c2.93,0,5.7-1.28,6.18-2.84.1-.32.2-.65.3-.97.2-.64.39-1.28.58-1.92.18-.64.38-1.28.58-1.92.2-.64.4-1.28.58-1.91.18-.63.38-1.27.58-1.91.03-.09.06-.16.08-.21.02-.04.04-.07.08-.07s.06.02.08.07c.02.05.04.12.08.21.2.64.39,1.28.58,1.91.18.63.38,1.27.58,1.91.2.64.4,1.28.58,1.92.19.64.38,1.28.58,1.92.1.32.2.65.3.97.48,1.57,3.26,2.84,6.18,2.84h3.78c4.22,0,7.24-2.22,5.99-4.4-.78-1.37-1.56-2.74-2.32-4.1-.79-1.41-1.59-2.82-2.4-4.24-.22-.39-.44-.77-.66-1.16.27.05.49.14.77.18,3.63.51,7.26,1.03,10.89,1.54,2.81.4,5.62.8,8.43,1.2,2.81.41,5.61.81,8.42,1.2.03,0,.06,0,.08.01,4.15.58,8.34-.84,8.34-2.84v-4.17c0-1.81-3.16-3.53-7.04-3.82-.8-.06-1.6-.12-2.4-.19-1.59-.12-3.17-.24-4.75-.36-1.59-.11-3.17-.23-4.76-.36-1.59-.13-3.16-.25-4.72-.36-1.56-.11-3.14-.23-4.72-.36-.23-.02-.4-.04-.51-.05-.11-.01-.17-.03-.17-.05s.06-.04.17-.05c.11,0,.28-.03.51-.05ZM324.3,109.39c-3,0-5.44-1.68-5.44-3.75s2.43-3.75,5.44-3.75,5.44,1.68,5.44,3.75-2.43,3.75-5.44,3.75Z"/>
</svg>