<?xml version="1.0" encoding="UTF-8"?>
<svg id="Calque_1" data-name="Calque 1" xmlns="http://www.w3.org/2000/svg" viewBox="0 0 106.16 59.6">
  <defs>
    <style>
      .cls-1 {
        fill: #164639;
        stroke-width: 0px;
      }
    </style>
  </defs>
  <path class="cls-1" d="M74.11,33.48c1.59-.12,3.16-.24,4.72-.36,1.56-.11,3.13-.23,4.72-.36,1.58-.12,3.17-.25,4.76-.36,1.58-.11,3.17-.23,4.75-.36.8-.06,1.6-.13,2.4-.19,3.88-.3,7.04-2.01,7.04-3.82v-2.34c0-2.61-5.49-4.48-10.9-3.71-3.4.48-6.78.96-10.16,1.44-3.49.49-6.99.99-10.5,1.49-.72.1-1.43.2-2.15.31.78-2,1.56-4,2.34-6.01.67-1.72,1.35-3.45,2.04-5.17.69-1.72,1.37-3.44,2.04-5.17,0-.02.01-.03.02-.05.99-2.54-1.43-5.12-4.81-5.12h-7.08c-3.07,0-5.98,1.94-6.48,4.32-.1.49-.21.98-.32,1.47-.21.97-.41,1.95-.61,2.92-.19.97-.4,1.95-.61,2.92-.21.97-.42,1.94-.61,2.9-.19.96-.4,1.92-.61,2.9-.04.14-.06.24-.08.31-.02.07-.04.1-.08.1s-.06-.04-.08-.1c-.02-.07-.04-.17-.08-.31-.21-.97-.41-1.94-.61-2.9-.19-.96-.4-1.92-.61-2.9-.21-.97-.42-1.94-.61-2.92-.19-.97-.4-1.94-.61-2.92-.11-.49-.21-.98-.32-1.47-.5-2.38-3.41-4.32-6.48-4.32h-3.96c-4.42,0-7.59,3.37-6.29,6.69.82,2.08,1.63,4.16,2.44,6.23.73,1.87,1.46,3.75,2.2,5.62-3.16-.51-6.33-1.02-9.49-1.53-2.87-.46-5.74-.93-8.6-1.41-2.87-.47-5.73-.94-8.6-1.41-.03,0-.06,0-.09-.01-4.23-.68-8.52.98-8.52,3.31v4.87c0,2.11,3.23,4.12,7.19,4.46.81.07,1.63.14,2.45.22,1.62.15,3.24.29,4.85.42,1.62.13,3.24.27,4.86.42,1.62.15,3.23.29,4.82.42,1.6.13,3.2.27,4.82.42.23.02.4.04.52.05.11.01.17.03.17.05s-.06.04-.17.06c-.12.01-.29.03-.52.05-1.62.15-3.23.29-4.82.42-1.59.13-3.2.27-4.82.42-1.62.15-3.24.29-4.86.42-1.62.13-3.24.27-4.85.42-.82.07-1.64.15-2.45.22-3.96.35-7.19,2.35-7.19,4.46v2.73c0,3.04,5.6,5.22,11.13,4.32,3.47-.56,6.93-1.12,10.37-1.68,3.56-.57,7.13-1.15,10.72-1.73.62-.1,1.23-.2,1.85-.3-.63,1.12-1.26,2.23-1.89,3.35-.64,1.13-1.29,2.27-1.95,3.4-.66,1.13-1.31,2.27-1.95,3.4l-.02.03c-.95,1.67,1.36,3.37,4.59,3.37h6.75c2.93,0,5.7-1.28,6.18-2.84.1-.32.2-.65.3-.97.2-.64.39-1.28.58-1.92.18-.64.38-1.28.58-1.92.2-.64.4-1.28.58-1.91.18-.63.38-1.27.58-1.91.03-.09.06-.16.08-.21.02-.04.04-.07.08-.07s.06.02.08.07c.02.05.04.12.08.21.2.64.39,1.28.58,1.91.18.63.38,1.27.58,1.91.2.64.4,1.28.58,1.92.19.64.38,1.28.58,1.92.1.32.2.65.3.97.48,1.57,3.26,2.84,6.18,2.84h3.78c4.22,0,7.24-2.22,5.99-4.4-.78-1.37-1.56-2.74-2.32-4.1-.79-1.41-1.59-2.82-2.4-4.24-.22-.39-.44-.77-.66-1.16.27.05.49.14.77.18,3.63.51,7.26,1.03,10.89,1.54,2.81.4,5.62.8,8.43,1.2,2.81.41,5.61.81,8.42,1.2.03,0,.06,0,.08.01,4.15.58,8.34-.84,8.34-2.84v-4.17c0-1.81-3.16-3.53-7.04-3.82-.8-.06-1.6-.12-2.4-.19-1.59-.12-3.17-.24-4.75-.36-1.59-.11-3.17-.23-4.76-.36-1.59-.13-3.16-.25-4.72-.36-1.56-.11-3.14-.23-4.72-.36-.23-.02-.4-.04-.51-.05-.11-.01-.17-.03-.17-.05s.06-.04.17-.05c.11,0,.28-.03.51-.05ZM52.57,36.99c-3,0-5.44-1.68-5.44-3.75s2.43-3.75,5.44-3.75,5.44,1.68,5.44,3.75-2.43,3.75-5.44,3.75Z"/>
</svg>