<?xml version="1.0" encoding="UTF-8"?>
<svg id="Calque_1" data-name="Calque 1" xmlns="http://www.w3.org/2000/svg" viewBox="0 0 458.3555123499 138.7636844092">
  <defs>
    <style>
      .cls-1 {
        fill: #164639;
        stroke-width: 0px;
      }
    </style>
  </defs>
  <path class="cls-1" d="M75.2781653378,14.9964418316c3.6593950183,0,6.2987302163,3.5222965113,5.2546835631,7.0295944008-.3470310295,1.1657919631-.6953229463,2.33167412-1.0449654876,3.4976913393-1.0524838103,3.5086873072-2.1049676207,7.0173746145-3.1586752494,10.5260619217-1.0524838103,3.5086873072-2.1049676207,7.0185984328-3.157451431,10.5272857401s-2.1049676207,7.0173746145-3.1586752494,10.5260619217c-.6641029532,2.2147061276-1.3330784636,4.4289249995-2.0066190795,6.6429640673-.7016883637,2.3065653563-2.834849687,3.8843216727-5.2457852528,3.8843216727H30.2670809401c-2.420794816,0-4.5504997682-1.5891925046-5.2395112525-3.9098628205-1.3492855243-4.5445495976-2.7049779852-9.0896735658-4.0688004941-13.634797534-1.7549555628-5.8474042393-3.4976729418-11.6960322969-5.2281521369-17.5446603545-1.0362321653-3.4990228168-2.080790359-6.9984838456-3.1334123597-10.4981208652-1.0560448945-3.5110170644,1.5597729325-7.0465394893,5.2261705712-7.0465394893h19.2817299902c2.6863090493,0,4.9571710767,1.956639457,5.3987304616,4.6064095636.0462804558.2777261052.0928664666.5551421922.1397714215.8322393353.3035069593,1.8014606614.5972233714,3.6139356883.8774777814,5.438648899s.5617326383,3.6494264214.8419870483,5.4741396321c.2814782283,1.8247132107.5617326383,3.6494264214.8419870483,5.4741396321.2814782283,1.8247132107.5727470038,3.6384120559.8774777814,5.438648899.3035069593,1.8014606614.5972233714,3.6139356883.8774777814,5.438648899h.1407391142c.232525493-1.5432349824.4785129882-3.0987081486.7367386672-4.6664194986.2557780423-1.5664875317.5017655375-3.1231845162.7367386672-4.6664194986.2337493114-1.5444588007.4785129882-3.0999319669.7367386672-4.667643317.2570018607-1.5664875317.5140037213-3.1341988817.7722294004-4.7019102317.2557780423-1.5664875317.5017655375-3.1231845162.7367386672-4.6664194986.2337493114-1.5444588007.4785129882-3.0987081486.7367386672-4.667643317.0025700186-.0156648753.0051388134-.0313286492.0077063868-.0469913216.4356960575-2.6578264861,2.7127086535-4.619428177,5.4060101006-4.619428177h18.3077724176Z"/>
  <path class="cls-1" d="M90.0849207311,67.6304228952c-3.3524419489,0-6.070133115-2.7176911661-6.070133115-6.070133115V21.0665749466c0-3.3524419298,2.7176911661-6.070133115,6.070133115-6.070133115h16.9841636749c3.3524419489,0,6.070133115,2.7176911661,6.070133115,6.070133115v40.4937148335c0,3.3524419489-2.7176911662,6.070133115-6.070133115,6.070133115h-16.9841636749Z"/>
  <path class="cls-1" d="M145.0698629806,46.8573296434c0,.047728917.0110143655.0819958317.0342669148.105248381.0232525493.0244763677.0587432824.0354907331.105248381.0354907331h19.4036484458c4.3994041623,0,7.9658258963,3.566421734,7.9658258963,7.9658258963v4.700702345c0,4.3994041623-3.566421734,7.9658258963-7.9658258963,7.9658258963h-40.7017677502c-4.3994041623,0-7.9658258963-3.566421734-7.9658258963-7.9658258963V22.9622677279c0-4.3994041623,3.566421734-7.9658258963,7.9658258963-7.9658258963h13.1927781123c4.3994041623,0,7.9658258963,3.5664217089,7.9658258963,7.9658258963v23.8950619155Z"/>
  <path class="cls-1" d="M204.0199707246,46.8573296434c0,.047728917.0110143655.0819958317.0342669148.105248381.0232525493.0244763677.0587432824.0354907331.105248381.0354907331h19.4036484458c4.3994041623,0,7.9658258963,3.566421734,7.9658258963,7.9658258963v4.700702345c0,4.3994041623-3.566421734,7.9658258963-7.9658258963,7.9658258963h-40.7017677502c-4.3994041623,0-7.9658258963-3.566421734-7.9658258963-7.9658258963V22.9622677279c0-4.3994041623,3.566421734-7.9658258963,7.9658258963-7.9658258963h13.1927781123c4.3994041623,0,7.9658258963,3.5664217089,7.9658258963,7.9658258963v23.8950619155Z"/>
  <path class="cls-1" d="M287.0235885542,14.9964418316c2.2949628535,0,4.3187219303,1.5148479251,4.9492601262,3.721491549.4767411671,1.6684125777.9496334123,3.3402720243,1.4189071802,5.0153478952.818734499,2.924925938,1.6374689979,5.849851876,2.4562034969,8.7723301773.818734499,2.924925938,1.6497071818,5.849851876,2.49169423,8.7723301773.8419870483,2.924925938,1.6717359127,5.849851876,2.49169423,8.7723301773.8175106806,2.924925938,1.6362451795,5.849851876,2.4562034969,8.7723301773.2109202152.7546396923.4227365361,1.5100125619.6354069266,2.2661186088.9226035152,3.2801279723-1.5291370617,6.5417023016-4.9365461597,6.5417023016h-20.1845837102c-2.4985482926,0-4.6348165421-1.7975626122-5.0619039739-4.2593383729l-.4542807691-2.6185209458h-9.5445595776l-.4536632952,2.6176465288c-.4267194105,2.4621797608-2.5631721199,4.2602127899-5.0620555966,4.2602127899h-18.8510875228c-3.407409098,0-5.8598840358-3.2616342038-4.9370676753-6.5417023016.2127233367-.7561060469.4246924781-1.5114789165.6359284422-2.2661186088.818734499-2.9224783012,1.6374689979-5.8474042393,2.4562034969-8.7723301773.818734499-2.9224783012,1.6374689979-5.8474042393,2.4562034969-8.7723301773.818734499-2.9224783012,1.6374689979-5.8474042393,2.4574273153-8.7723301773.8175106806-2.9224783012,1.6362451796-5.8474042393,2.4562034969-8.7723301773.465147805-1.6628337699.9267298298-3.3224979575,1.3849715034-4.9787671338.6157204195-2.2254605177,2.6342927121-3.7580723103,4.9433587897-3.7580723103h35.7960820523ZM264.5842949171,55.8401565827h.0697576479l7.8009813859-.0000858997c-.3790095181-2.3209379451-.7217958754-4.368353825-1.0283704483-6.1398109334-.3047307776-1.7549555628-.6216997391-3.6261738721-.9484592477-5.6148787463-.3267595086-1.9874810558-.6314902862-3.8709375489-.9117446962-5.649145661s-.6314902862-3.7901655356-1.0524838103-6.0358722704h-.0709814663c-.3744884255,2.2457067348-.7134861179,4.2576641583-1.0169930772,6.0358722704-.3047307776,1.7782081121-.6204759207,3.6616646052-.9472354293,5.649145661-.3279833269,1.9887048742-.6314902862,3.8599231835-.9129685145,5.6148787463-.28025441,1.7537317444-.6082377369,3.7779273517-.9815023441,6.0701391852v.0697576479Z"/>
  <path class="cls-1" d="M345.2889982569,12.891474211c8.3268602854,0,15.2047196041,1.029231261,20.6323541376,3.0876937831,5.4264107151,2.0596863404,9.5910646762,4.8536637114,12.4915142466,8.3856035679,1.7386072392,2.1178730378,3.0906889546,4.3993268434,4.0562451461,6.8446250046,1.0368127268,2.6257573373-.4849342591,5.5711544318-3.2324319267,6.2198753206l-20.0827294407,4.7418006014c-2.4166104938.5705940085-4.6837359704-.9293033596-5.4997377765-3.2744525773-.004576836-.0131536024-.0092027471-.0262839499-.0138777333-.0393910448-.4687224411-1.309485671-1.4037196866-2.338716932-2.8074393731-3.0876937831-1.4037196866-.7477530327-3.2749379959-1.1234652766-5.6136549279-1.1234652766-2.2004254546,0-3.9419190152.3047307776-5.2281521369.9129685145-1.2874569401.6082377369-2.2004254546,1.3682289534-2.7376817252,2.2799736496-.538480089.9129685145-.8064963151,1.8846803115-.8064963151,2.9126877542,0,.7489768511.1627678451,1.4636867874.490751172,2.1404583538.3267595086.6792192032.8419870483,1.2984713055,1.5444588007,1.8602039438.7012479341.5617326383,1.6142164486,1.0059787117,2.7364579069,1.3327382203,1.1234652766.3279833269,2.4562034969.4919749904,4.0006622976.4919749904,2.3852220306,0,4.2331877906-.2692400445,5.54389728-.8077201335,1.309485671-.5372562706,2.2457067348-1.2984713055,2.8074393731-2.2799736496-.7489768511,2.7609342745-1.4979537021,5.54389728-2.2457067348,8.3513366531-.7489768511,2.8062155548-1.5089680676,5.6258931117-2.281197468,8.4565850342-.5025800805,1.8422626404-1.0004948847,3.6694927241-1.4930696924,5.4816902512-.4917733154,1.8092488129-2.0326637938,3.1587763343-3.8957096507,3.3692101617-.1929740427.0217967079-.3850145581.0421100471-.576111461.0609450601-1.1932229245.1162627465-2.6091807949.1762298473-4.2466497928.1762298473-3.5551924058,0-6.8191160362-.3279833269-9.7893232544-.9827261624-2.9714310366-.6559666539-5.649145661-1.5787257155-8.03559151-2.77194864s-4.4803991042-2.6324333442-6.2806359472-4.3164074407c-1.8014606614-1.6839740965-3.2981905452-3.5674305897-4.4914134697-5.649145661s-2.0951770736-4.3274218062-2.7021909921-6.7371202045c-.6082377369-2.4096983983-.9129685145-4.9234213593-.9129685145-7.544840338,0-2.1514727193.2215111275-4.2454259745.6669810193-6.2806359472.4442460734-2.0352099728,1.1467178259-4.0006622976,2.106191439-5.8951331562.9582497948-1.8944708586,2.185739634-3.6726789707,3.6836933362-5.3334005179,1.4967298838-1.6607215472,3.2639236304-3.157451431,5.2991336032-4.4914134697s4.3861650886-2.49169423,7.0528653476-3.4744203925c2.666700259-.981502344,5.649145661-1.7292553767,8.9473362062-2.2457067348,3.2981905452-.5140037213,6.9353787827-.771005582,10.9127885311-.771005582ZM358.1763476714,67.6304228952c-2.5436967583,0-4.6057704093-2.062073651-4.6057704093-4.6057704093v-14.9295006263c0-2.5436967583,2.062073651-4.6057704093,4.6057704093-4.6057704093h20.5431555541c2.5436967583,0,4.6057704093,2.062073651,4.6057704093,4.6057704093v14.9295006263c0,2.5436967583-2.062073651,4.6057704093-4.6057704093,4.6057704093h-20.5431555541Z"/>
  <path class="cls-1" d="M445.573571924,27.7339485213c0,2.7326457257-2.2152470534,4.947892779-4.947892779,4.947892779h-25.6500144603v3.9994384793h24.59753065c2.7326457257,0,4.947892779,2.2152470534,4.947892779,4.947892779v.0000098958c0,2.7326457257-2.2152470534,4.947892779-4.947892779,4.947892779h-24.5265491837c-.047728917,0-.0709814663.0122381838-.0709814663.0342669148v4.0361530308h26.0710079845c2.7326457257,0,4.947892779,2.2152470534,4.947892779,4.947892779v7.0871421581c0,2.7326457257-2.2152470534,4.947892779-4.947892779,4.947892779h-49.5450733579c-2.7326457257,0-4.947892779-2.2152470534-4.947892779-4.947892779V19.9443346107c0-2.7326457257,2.2152470534-4.947892779,4.947892779-4.947892779h49.1240798337c2.7326457257,0,4.947892779,2.2152470534,4.947892779,4.947892779v7.7896139106Z"/>
  <path class="cls-1" d="M239.91991768,73.2382291346c3.3081039595,0,5.6941449462,3.1837543723,4.7515066621,6.3547139861-.4134212141,1.390715819-.828612251,2.7815476775-1.2457254678,4.172571754-1.0524838103,3.5086873072-2.1049676207,7.0173746145-3.1586752494,10.5260619217-1.0524838103,3.5086873072-2.1049676207,7.0185984328-3.157451431,10.5272857401-1.0524838103,3.5086873072-2.1049676207,7.0173746145-3.1586752494,10.5260619217-.7013863626,2.3390419626-1.4082077403,4.6775404237-2.120101938,7.0158575784-.6347743756,2.0850061942-2.5631131683,3.5114281617-4.7426060767,3.5114281617h-33.2749757393c-2.1884056998,0-4.1136770452-1.4365780866-4.7364003985-3.5345140084-1.3860717652-4.6696333635-2.7788580166-9.3398898548-4.1802281376-14.0101463461-1.7549555628-5.8474042393-3.4976729418-11.6960322969-5.2281521369-17.5446603545-1.1029953022-3.7244604622-2.2154240658-7.4494174224-3.33697005-11.1745546398-.9555255076-3.1737117165,1.409101246-6.3701057147,4.7235355952-6.3701057147h20.4353671341c2.4284313549,0,4.4822315983,1.7705866693,4.8782763074,4.1665055815.0702145087.4247709043.1411256297.8488292846.2127810982,1.2721433174.3035069593,1.8014606614.5972233714,3.6139356883.8774777814,5.438648899s.5617326383,3.6494264214.8419870483,5.4741396321c.2814782283,1.8247132107.5617326383,3.6494264214.8419870483,5.4741396321.2814782283,1.8247132107.5727470038,3.6384120559.8774777814,5.438648899.3035069593,1.8014606614.5972233714,3.6139356883.8774777814,5.438648899h.1407391142c.232525493-1.5432349824.4785129882-3.0987081486.7367386672-4.6664194986.2557780423-1.5664875317.5017655375-3.1231845162.7367386672-4.6664194986.2337493114-1.5444588007.4785129882-3.0999319669.7367386672-4.667643317.2570018607-1.5664875317.5140037213-3.1341988817.7722294004-4.7019102317.2557780423-1.5664875317.5017655375-3.1231845162.7367386672-4.6664194986.2337493114-1.5444588007.4785129882-3.0987081486.7367386672-4.667643317.0269947202-.1645392467.0538544191-.3289569743.0805819332-.4932531828.3909434145-2.403161043,2.4494060638-4.1731663158,4.884158567-4.1731663158h19.4606852858Z"/>
  <path class="cls-1" d="M306.972468469,85.9757358243c0,2.7326457257-2.2152470534,4.947892779-4.947892779,4.947892779h-25.6500144603v3.9994384793h24.59753065c2.7326457257,0,4.947892779,2.2152470534,4.947892779,4.947892779v.0000098958c0,2.7326457257-2.2152470534,4.947892779-4.947892779,4.947892779h-24.5265491837c-.047728917,0-.0709814663.0122381838-.0709814663.0342669148v4.0361530308h26.0710079845c2.7326457257,0,4.947892779,2.2152470534,4.947892779,4.947892779v7.0871421581c0,2.7326457257-2.2152470534,4.947892779-4.947892779,4.947892779h-49.5450733579c-2.7326457257,0-4.947892779-2.2152470534-4.947892779-4.947892779v-42.7381955055c0-2.7326457257,2.2152470534-4.947892779,4.947892779-4.947892779h49.1240798337c2.7326457257,0,4.947892779,2.2152470534,4.947892779,4.947892779v7.7896139106Z"/>
  <path class="cls-1" d="M310.0601622521,78.1861219136c0-2.7326457257,2.2152470534-4.947892779,4.947892779-4.947892779h45.7916174259c4.1157012257,0,7.5313783358.7367386672,10.2458075117,2.2102160017,2.7132053576,1.4747011528,4.7471915119,3.3691720114,6.1056299183,5.6846363942,1.3559907696,2.3166882011,2.0352099728,4.7618773326,2.0352099728,7.3343435759,0,2.666700259-.7367386672,5.2514046862-2.2114398201,7.7541132817-1.4734773345,2.5039324139-3.69593152,4.5513805705-6.6661387382,6.1411206514-2.9714310366,1.5909638993-6.6796007404,2.3852220306-11.1232852931,2.3852220306h-5.1938852221v.2814782283h12.9225433605c1.8479317757,0,3.541859375,1.0297647862,4.3925025251,2.6702702203l5.6763275223,10.9470653416c1.7078132326,3.2935983654-.6824599066,7.2255153378-4.3925025251,7.2255153378h-21.7743750755c-2.0585372403,0-3.894470665-1.2741926989-4.6204658103-3.2004602345-.4971658111-1.3191195121-.9978263259-2.6381994468-1.5026020794-3.9576534941-.9117446962-2.386445849-1.8247132107-4.7716678796-2.7364579069-7.1581137286-.0540098541-.1411785731-.1080582555-.2823571462-.1621452042-.4235354659-1.2439680129-3.2470183298,1.1350247071-6.7345782627,4.6121764799-6.7345782627h.9188599754c.9349972455,0,1.7647461099-.1407391142,2.4904704116-.4209935241.7257243018-.2814782283,1.3217238548-.6547428355,1.7904462959-1.1234652766.4662748043-.4674986227.8175106806-.9937405279,1.0524838103-1.5787257155.2337493114-.5849851876.3500120579-1.1809847407.3500120579-1.7892224776,0-.8419870483-.2104967621-1.6374689979-.6314902862-2.386445849-.4209935241-.7477530327-1.0524838103-1.3559907696-1.8944708586-1.8247132107-.8419870483-.4674986227-1.8944708586-.7012479341-3.157451431-.7012479341h-8.0013245953c-.0465050986.0465050986-.0819958317.0697576479-.105248381.0697576479s-.0342669148.0244763677-.0342669148.0697576479v9.3695535487c0,.3500120579,0,.4797368066,0,.385502791v16.456690759c0,2.7326457257-2.2152470534,4.947892779-4.947892779,4.947892779h-19.2286443468c-2.7326457257,0-4.947892779-2.2152470534-4.947892779-4.947892779v-42.7381955055Z"/>
  <path class="cls-1" d="M445.0828207519,78.1861219136v11.439040332c0,2.7326457257-2.2152470534,4.947892779-4.947892779,4.947892779h-11.9640534709c-.047728917.0465050986-.0832196501.0697576479-.1064721994.0697576479s-.0342669148.0244763677-.0342669148.0697576479v26.2117470986c0,2.7326457257-2.2152470534,4.947892779-4.947892779,4.947892779h-19.2286443468c-2.7326457257,0-4.947892779-2.2152470534-4.947892779-4.947892779v-26.2117470986c0-.0452812802-.0122381838-.0807720134-.0354907331-.105248381-.0232525493-.0232525493-.0587432824-.0342669148-.105248381-.0342669148h-11.9652772893c-2.7326457257,0-4.947892779-2.2152470534-4.947892779-4.947892779v-11.439040332c0-2.7326457257,2.2152470534-4.947892779,4.947892779-4.947892779h53.3352388934c2.7326457257,0,4.947892779,2.2152470534,4.947892779,4.947892779Z"/>
</svg>